<svg width="151.181" height="151.181" viewBox="0 0 40 40" xmlns="http://www.w3.org/2000/svg"><defs><clipPath clipPathUnits="userSpaceOnUse" id="a"><path d="M283.389 61.307H0V0h283.389z"/></clipPath></defs><circle style="display:inline;fill:#00a0dc;fill-opacity:1;fill-rule:evenodd;stroke:none;stroke-width:.108894;stroke-linecap:round;stroke-linejoin:round;stroke-miterlimit:4;stroke-dasharray:none;stroke-dashoffset:0;stroke-opacity:1" cx="20" cy="20" r="19.5"/><g clip-path="url(#a)" style="fill:#000;fill-opacity:1" transform="matrix(.20649 0 0 -.20649 13.596 19.823)"><g style="fill:#000;fill-opacity:1"><path style="fill:#000;fill-opacity:1;fill-rule:nonzero;stroke:none" d="m0 0 .37-1.244c2.199-8.516 5.174-9.13 6.209-7.898.226.317.329.775.37 1.287C6.951-5.475 5.209-1.913 0 0zm8.903 45.242c.003-.323.128-.676.323-1.037 1.304-1.98 4.849-3.998 10.329-2.459l-.988.755c-6.784 5.598-9.549 4.346-9.664 2.741zm-20.959-26.553c.293-.092.648-.084 1.03-.02 2.304.56 5.433 3.308 5.66 9.12l-1.097-.756c-7.419-4.722-7.085-7.741-5.593-8.344zm52.661 15.065c-.29-.097-.57-.312-.84-.586-1.595-1.759-2.612-5.909.734-10.865l.487 1.414c3.226 8.181 1.182 10.426-.381 10.037zM38.182.363c-2.118 1.008-6.375.77-10.076-3.868l1.14-.028c8.78-.538 10.282 2.1 9.43 3.465a1.89 1.89 0 0 1-.494.431" transform="translate(14.705 14.704)"/></g></g><g style="fill:#fff;fill-opacity:1"><path style="display:inline;fill:#fff;fill-opacity:1;fill-rule:nonzero;stroke:none;stroke-width:.15174" d="M7.201 289.131v.466h-.672v3.055c0 .181.026.323.078.426.051.102.181.16.39.171H7.2v.456h-.223c-.385 0-.654-.071-.807-.215-.153-.143-.226-.408-.22-.794v-3.1h-.583v-.465h.583v-1.718h.578v1.718H7.2M8.894 287.413v2.5h.018c.11-.275.306-.496.587-.663.281-.166.59-.25.926-.25.33 0 .606.041.83.123.222.082.401.198.536.347.134.15.229.332.284.548.055.217.082.46.082.73v2.958h-.577v-2.871c0-.193-.019-.373-.055-.54a1.117 1.117 0 0 0-.193-.435.926.926 0 0 0-.37-.29 1.416 1.416 0 0 0-.583-.105c-.232 0-.439.04-.619.119a1.338 1.338 0 0 0-.458.325 1.483 1.483 0 0 0-.293.491c-.07.19-.109.397-.115.62v2.686h-.577v-6.293h.577M16.534 290.475a1.648 1.648 0 0 0-.298-.513 1.47 1.47 0 0 0-.468-.36 1.387 1.387 0 0 0-.623-.136c-.238 0-.449.045-.632.136a1.468 1.468 0 0 0-.468.36 1.778 1.778 0 0 0-.307.518 2.445 2.445 0 0 0-.151.601h3.062a1.934 1.934 0 0 0-.115-.606zm-2.86 1.69a1.668 1.668 0 0 0 .28.575c.128.17.29.31.485.422.196.111.431.167.706.167.422 0 .752-.106.99-.316.238-.211.404-.432.495-.783h.578c-.123.515-.347.853-.674 1.134-.327.28-.79.421-1.389.421-.372 0-.695-.063-.967-.189a1.764 1.764 0 0 1-.664-.518 2.213 2.213 0 0 1-.38-.764 3.33 3.33 0 0 1 0-1.795c.082-.286.208-.542.38-.768a1.89 1.89 0 0 1 .664-.544 2.12 2.12 0 0 1 .967-.207c.38 0 .703.074.972.22.269.146.487.338.655.575.168.237.29.51.362.816.074.308.104.62.092.936h-3.639c0 .199.029.405.087.618M20.727 290.014a.913.913 0 0 0-.27-.311 1.157 1.157 0 0 0-.39-.18 1.972 1.972 0 0 0-.857-.017 1.228 1.228 0 0 0-.362.13.764.764 0 0 0-.266.242c-.067.1-.1.223-.1.37 0 .122.031.226.096.31a.84.84 0 0 0 .242.216 1.58 1.58 0 0 0 .321.145 3.988 3.988 0 0 0 .321.092l.77.167a2.28 2.28 0 0 1 .49.127 1.604 1.604 0 0 1 .431.241 1.196 1.196 0 0 1 .307.369c.08.147.12.32.12.518a1.1 1.1 0 0 1-.175.628 1.395 1.395 0 0 1-.444.421c-.18.108-.384.186-.61.233a3.293 3.293 0 0 1-.669.07c-.556 0-1.007-.126-1.352-.377-.345-.252-.542-.622-.591-1.178h.577c.025.374.167.623.426.813.26.19.583.286.968.286.14 0 .285-.015.435-.044a1.443 1.443 0 0 0 .417-.15.979.979 0 0 0 .316-.267.639.639 0 0 0 .124-.4.616.616 0 0 0-.087-.338.741.741 0 0 0-.234-.228 1.494 1.494 0 0 0-.334-.154 4.35 4.35 0 0 0-.38-.105l-.743-.158a4.33 4.33 0 0 1-.523-.162 1.679 1.679 0 0 1-.417-.229.971.971 0 0 1-.28-.333 1.065 1.065 0 0 1-.1-.488c0-.228.053-.424.16-.588a1.228 1.228 0 0 1 .417-.395c.171-.1.362-.172.573-.22.21-.046.42-.07.628-.07.238 0 .46.03.665.088.204.059.385.15.54.272a1.35 1.35 0 0 1 .372.457c.091.181.143.395.155.64h-.577a1.01 1.01 0 0 0-.11-.443M25.7 290.475a1.648 1.648 0 0 0-.298-.513 1.47 1.47 0 0 0-.468-.36 1.387 1.387 0 0 0-.623-.136c-.238 0-.449.045-.632.136a1.468 1.468 0 0 0-.468.36 1.774 1.774 0 0 0-.307.518 2.445 2.445 0 0 0-.151.601h3.062a1.934 1.934 0 0 0-.115-.606zm-2.86 1.69a1.667 1.667 0 0 0 .28.575c.128.17.29.31.485.422.196.111.431.167.706.167.422 0 .752-.106.99-.316.239-.211.404-.432.495-.783h.578c-.122.515-.347.853-.674 1.134-.327.28-.79.421-1.389.421-.372 0-.695-.063-.967-.189a1.764 1.764 0 0 1-.664-.518 2.213 2.213 0 0 1-.38-.764 3.33 3.33 0 0 1 0-1.795c.082-.286.208-.542.38-.768a1.89 1.89 0 0 1 .664-.544c.272-.138.595-.207.967-.207.38 0 .703.074.972.22.269.146.487.338.655.575.168.237.289.51.362.816.074.308.104.62.092.936h-3.639c0 .199.03.405.087.618M29.894 290.014a.914.914 0 0 0-.27-.311 1.156 1.156 0 0 0-.39-.18 1.973 1.973 0 0 0-.857-.017 1.226 1.226 0 0 0-.362.13.766.766 0 0 0-.266.242c-.067.1-.1.223-.1.37 0 .122.031.226.095.31a.843.843 0 0 0 .243.216 1.576 1.576 0 0 0 .321.145 4.024 4.024 0 0 0 .32.092l.77.167a2.28 2.28 0 0 1 .491.127 1.605 1.605 0 0 1 .431.241 1.195 1.195 0 0 1 .307.369c.08.147.12.32.12.518a1.1 1.1 0 0 1-.175.628 1.392 1.392 0 0 1-.444.421 1.94 1.94 0 0 1-.61.233 3.29 3.29 0 0 1-.67.07c-.555 0-1.006-.126-1.351-.377-.345-.252-.543-.622-.591-1.178h.577c.025.374.167.623.426.813.26.19.582.286.967.286.141 0 .286-.015.436-.044a1.443 1.443 0 0 0 .417-.15.982.982 0 0 0 .316-.267.64.64 0 0 0 .124-.4.616.616 0 0 0-.087-.338.74.74 0 0 0-.234-.228 1.486 1.486 0 0 0-.335-.154 4.35 4.35 0 0 0-.38-.105l-.742-.158a4.339 4.339 0 0 1-.523-.162 1.681 1.681 0 0 1-.417-.229.965.965 0 0 1-.28-.333 1.06 1.06 0 0 1-.1-.488c0-.228.053-.424.16-.588a1.227 1.227 0 0 1 .417-.395c.171-.1.362-.172.573-.22.21-.046.42-.07.628-.07.238 0 .46.03.664.088.205.059.386.15.541.272a1.348 1.348 0 0 1 .371.457c.092.181.144.395.156.64h-.577a1.01 1.01 0 0 0-.11-.443" transform="translate(-.52 -265.213)"/><path style="display:inline;fill:#fff;fill-opacity:1;fill-rule:nonzero;stroke:none;stroke-width:.151743" d="M31.564 291.175h.462v-.409h-.462z" transform="translate(-.52 -265.213)"/><path style="display:inline;fill:#fff;fill-opacity:1;fill-rule:nonzero;stroke:none;stroke-width:.15174" d="M33.423 288.736v2.44h-.347v-2.44h-.484v-.279h.484v-.247c0-.116.01-.223.028-.322a.613.613 0 0 1 .104-.253.503.503 0 0 1 .212-.163.88.88 0 0 1 .344-.058c.051 0 .099-.004.143 0 .044.003.056.285.016.28-.04-.006-.08 0-.12 0a.464.464 0 0 0-.22.042.263.263 0 0 0-.113.113.415.415 0 0 0-.042.166 3.581 3.581 0 0 0-.005.205v.237h.408v.28h-.408M34.632 288.456v.638h.011a1.05 1.05 0 0 1 .41-.511c.185-.12.406-.137.662-.127v.295a1.09 1.09 0 0 0-.428.06.972.972 0 0 0-.333.204.916.916 0 0 0-.218.313 1.01 1.01 0 0 0-.077.398v1.448h-.346v-2.718h.319" transform="translate(-.52 -265.213)"/></g><g style="display:inline;fill:#fff;fill-opacity:1"><path d="M0 0c-5.962 6.557-3.956 12.195-1.821 13.618a4.904 4.904 0 0 1-.506-.343h-.003A19.599 19.599 0 0 1-5.773 9.15c-4.63-7.41-3.716-16.712 1.624-23.059.366-.43.747-.844 1.144-1.242 2.189-1.891 5.912-1.996 7.491 1.05C6.743-9.741 4.706-5.179 0 0" style="fill:#fff;fill-opacity:1;fill-rule:nonzero;stroke:none" transform="matrix(.20649 0 0 -.20649 25.35 12.633)"/></g><g style="display:inline;fill:#fff;fill-opacity:1"><path d="M0 0c1.747.192 3.5.62 5.21 1.312 8.102 3.273 12.829 11.337 12.239 19.609a21.264 21.264 0 0 1-.193 1.678c-.66 2.818-3.611 5.091-6.68 3.553-4.385-2.201-5.422-7.087-4.657-14.044C6.765 3.415 1.82.052-.611.021c.196-.02.398-.026.608-.021H0" style="fill:#fff;fill-opacity:1;fill-rule:nonzero;stroke:none" transform="scale(.2065 -.2065) rotate(75.873 101.025 11.553)"/></g><g style="display:inline;fill:#fff;fill-opacity:1"><path d="M-.078-.005C1.667.208 3.415.657 5.116 1.37 13.18 4.74 17.81 12.86 17.12 21.123c-.05.564-.12 1.122-.213 1.676-.694 2.81-3.672 5.047-6.722 3.473-4.358-2.253-5.337-7.151-4.489-14.099C6.771 3.375 1.875-.065-.689.01A4.89 4.89 0 0 1-.08-.004h.002" style="fill:#fff;fill-opacity:1;fill-rule:nonzero;stroke:none" transform="scale(-.20649 .20649) rotate(-35.712 66.185 224.623)"/></g><path d="M14.28 12.959a4.058 4.058 0 0 0 3.603-4.32 4.39 4.39 0 0 0-.04-.346c-.136-.582-.745-1.052-1.38-.734-.905.454-1.119 1.463-.96 2.9.2 1.819-.82 2.517-1.35 2.496.041.004.083.005.126.004h.001M23.695 9.665c.108-.044.214-.093.317-.145.511-.31.77-1.034.272-1.539-.712-.72-1.738-.612-3.055-.018-1.669.752-2.648-.002-2.79-.511.008.04.02.08.034.12v.001a4.05 4.05 0 0 0 .59.94 4.058 4.058 0 0 0 4.632 1.152" style="display:inline;fill:#fff;fill-opacity:1;fill-rule:nonzero;stroke:none;stroke-width:.20649"/></svg>